<svg width="61" height="52" viewBox="0 0 61 52" fill="none" xmlns="http://www.w3.org/2000/svg">
<g clip-path="url(#clip0)">
<path fill-rule="evenodd" clip-rule="evenodd" d="M45.3203 0L60.4277 25.9993L45.3203 52H15.1053L0 25.9993L15.1053 0H45.3203Z" fill="url(#paint0_linear)"/>
<path d="M30.779 12.9036C29.9542 12.8156 29.3705 13.7777 29.8247 14.456C29.8352 14.4681 29.8457 14.4785 29.8578 14.4884L31.5516 16.4825L29.9894 17.7243C29.9726 17.7348 29.9563 17.7447 29.94 17.7567C29.6952 18 29.6337 18.4048 29.759 18.688C29.8848 18.972 30.1748 19.1787 30.5158 19.1787H31.8146C32.0773 21.2718 33.8694 22.8421 35.9923 22.839C38.281 22.8425 40.1521 21.0269 40.2026 18.7535V18.7378C40.2047 18.7105 40.2047 18.6829 40.2026 18.6556V16.6456C40.2047 16.6195 40.2047 16.5906 40.2026 16.5639V14.3746C40.2049 14.1033 39.9976 13.8761 39.7258 13.8515L30.7953 12.9036H30.779ZM30.779 13.9656L39.15 14.8314V16.0411H32.555L30.779 13.9656ZM23.5586 16.0411C23.4929 16.0411 23.4272 16.0453 23.3613 16.0573H23.3119C23.2952 16.062 23.2786 16.0675 23.2623 16.074L16.9142 18.6714C16.5833 18.7288 16.2933 18.9146 16.1412 19.1618C15.9544 19.4661 15.9565 19.7846 15.9933 20.044L16.0096 20.0602L17.5886 27.741C17.5927 27.7431 17.5886 27.7531 17.5886 27.7572C17.6275 27.9611 17.7327 28.1641 17.8848 28.3132C17.9074 28.3539 17.9342 28.3925 17.9668 28.427L23.2297 34.1138L23.246 34.1307C23.7214 34.6024 24.3603 34.866 24.9897 34.866C25.5822 34.8623 26.1541 34.648 26.6013 34.2615L28.5748 32.5618V38.5268C28.5748 38.8145 28.8117 39.0498 29.101 39.0498H30.6637C30.8095 39.1193 30.9784 39.1193 31.1242 39.0498H41.732C42.022 39.0498 42.2584 38.8145 42.2584 38.5268V27.3819C42.2768 26.6922 42.0816 26.0134 41.6994 25.4376V25.4207C41.6931 25.4107 41.6889 25.3989 41.6826 25.3883C41.6456 25.2966 41.5829 25.217 41.5021 25.1594C40.8369 24.3498 39.8397 23.8817 38.7881 23.8849H32.7356C31.6958 23.8849 30.4769 24.3607 29.7094 24.9962L29.6936 25.0124L25.1213 29.0817L24.4139 28.3627C24.4747 28.3206 24.5301 28.271 24.5786 28.2153C24.7645 27.9861 24.8369 27.6864 24.7761 27.3985L23.1971 19.5707V19.5545H23.1803C23.1272 19.2805 22.9772 19.0169 22.7529 18.8681C22.5223 18.7147 22.2552 18.6556 21.9962 18.6556H19.7431L23.5423 17.1032L25.3186 25.9766C25.3894 26.2478 25.6619 26.4163 25.9382 26.3598C26.2144 26.3031 26.3972 26.0414 26.3544 25.7644L24.5623 16.8255C24.4661 16.3434 24.0219 16.039 23.5593 16.0411H23.5586ZM32.4894 17.087H39.15V18.1328H32.4067C32.3363 18.1185 32.2637 18.1185 32.1931 18.1328H31.1573L32.473 17.1032L32.4894 17.087ZM32.8842 19.1787H39.1007C38.8558 20.68 37.5855 21.7932 35.9923 21.7932C34.3993 21.7932 33.1287 20.68 32.8842 19.1787ZM17.1774 19.7015H21.9962C22.1052 19.7015 22.1545 19.7302 22.1608 19.7346V19.7501L23.7235 27.5455C23.7214 27.5476 23.7456 27.5455 23.6739 27.5455H18.6083L17.0295 19.8813H17.0458C17.0354 19.8036 17.0416 19.7769 17.0458 19.7508C17.0789 19.7422 17.1136 19.7323 17.1448 19.7177L17.1774 19.7015ZM32.7363 24.9307H37.357L29.6279 34.4904V31.4183C29.6279 31.2142 29.5068 31.0281 29.3195 30.9446C29.1318 30.8601 28.9119 30.8918 28.7563 31.026L25.9111 33.4776C25.627 33.7181 25.3482 33.8206 24.9902 33.8206C24.6797 33.8206 24.2828 33.6637 24.0198 33.4121L24.0035 33.3954L19.5789 28.5913H23.1314L24.726 30.16C24.9247 30.356 25.2429 30.363 25.4502 30.1762L30.3842 25.7968C30.3863 25.7947 30.3984 25.7989 30.4005 25.7968C30.902 25.3883 32.0945 24.9307 32.7363 24.9307ZM38.7058 24.9307H38.7885C39.4854 24.9307 40.1001 25.1923 40.5315 25.6174L30.6637 38.004H29.6274V36.1576L38.7058 24.9307ZM41.091 26.5811C41.1648 26.8264 41.2142 27.0859 41.2058 27.3657V38.004H32.0126L41.091 26.5811Z" fill="white"/>
</g>
<defs>
<linearGradient id="paint0_linear" x1="-8.9481e-07" y1="6.25392e-06" x2="70.0451" y2="27.5331" gradientUnits="userSpaceOnUse">
<stop stop-color="#D20087"/>
<stop offset="0.519742" stop-color="#79098F"/>
<stop offset="1" stop-color="#0C024A"/>
</linearGradient>
<clipPath id="clip0">
<rect width="60.4277" height="52" fill="white"/>
</clipPath>
</defs>
</svg>
