<?xml version="1.0" encoding="UTF-8" standalone="no"?><!-- Generator: Gravit.io --><svg xmlns="http://www.w3.org/2000/svg" xmlns:xlink="http://www.w3.org/1999/xlink" style="isolation:isolate" viewBox="4.568 1 259.432 224.686" width="259.432pt" height="224.686pt"><g><linearGradient id="_lgradient_2" x1="-0.030136744222316797" y1="0.014464654162529483" x2="0.9864447238521414" y2="1.0426666690251376" gradientTransform="matrix(259.432,0,0,224.686,4.568,1)" gradientUnits="userSpaceOnUse"><stop offset="0%" stop-opacity="1" style="stop-color:rgb(255,112,67)"/><stop offset="97.82608695652173%" stop-opacity="1" style="stop-color:rgb(242,53,100)"/></linearGradient><path d=" M 199.14 1 L 264 113.34 L 199.14 225.686 L 69.419 225.686 L 4.568 113.34 L 69.419 1 L 199.14 1 Z " fill-rule="evenodd" fill="url(#_lgradient_2)"/><path d=" M 136.711 56.755 C 133.17 56.375 130.664 60.532 132.614 63.463 C 132.659 63.515 132.704 63.56 132.756 63.603 L 140.028 72.219 L 133.321 77.585 C 133.249 77.63 133.179 77.673 133.109 77.725 C 132.058 78.776 131.794 80.525 132.332 81.749 C 132.872 82.976 134.117 83.869 135.581 83.869 L 141.157 83.869 C 142.285 92.913 149.979 99.698 159.093 99.685 C 168.919 99.7 176.952 91.855 177.169 82.032 L 177.169 81.964 C 177.178 81.846 177.178 81.727 177.169 81.609 L 177.169 72.924 C 177.178 72.811 177.178 72.686 177.169 72.571 L 177.169 63.111 C 177.179 61.939 176.289 60.957 175.122 60.851 L 136.781 56.755 L 136.711 56.755 Z  M 136.711 61.344 L 172.65 65.085 L 172.65 70.312 L 144.336 70.312 L 136.711 61.344 Z  M 105.712 70.312 C 105.43 70.312 105.148 70.33 104.865 70.382 L 104.653 70.382 C 104.581 70.402 104.51 70.426 104.44 70.454 L 77.186 81.677 C 75.765 81.925 74.52 82.728 73.867 83.796 C 73.065 85.111 73.074 86.487 73.232 87.608 L 73.302 87.678 L 80.081 120.866 C 80.099 120.875 80.081 120.918 80.081 120.936 C 80.248 121.817 80.7 122.694 81.353 123.338 C 81.45 123.514 81.565 123.681 81.705 123.83 L 104.3 148.402 L 104.37 148.475 C 106.411 150.513 109.154 151.652 111.856 151.652 C 114.4 151.636 116.855 150.71 118.775 149.04 L 127.248 141.696 L 127.248 167.47 C 127.248 168.713 128.265 169.73 129.507 169.73 L 136.216 169.73 C 136.842 170.03 137.567 170.03 138.193 169.73 L 183.735 169.73 C 184.98 169.73 185.995 168.713 185.995 167.47 L 185.995 119.314 C 186.074 116.334 185.236 113.401 183.595 110.913 L 183.595 110.84 C 183.568 110.797 183.55 110.746 183.523 110.7 C 183.364 110.304 183.095 109.96 182.748 109.711 C 179.892 106.213 175.611 104.19 171.096 104.204 L 145.111 104.204 C 140.647 104.204 135.414 106.26 132.119 109.006 L 132.051 109.076 L 112.421 126.659 L 109.384 123.552 C 109.645 123.37 109.883 123.156 110.091 122.915 C 110.889 121.925 111.2 120.63 110.939 119.386 L 104.16 85.563 L 104.16 85.493 L 104.088 85.493 C 103.86 84.309 103.216 83.17 102.253 82.527 C 101.263 81.864 100.116 81.609 99.004 81.609 L 89.331 81.609 L 105.642 74.901 L 113.268 113.242 C 113.572 114.414 114.742 115.142 115.928 114.898 C 117.114 114.653 117.899 113.522 117.715 112.325 L 110.021 73.701 C 109.608 71.618 107.701 70.303 105.715 70.312 L 105.712 70.312 Z  M 144.054 74.831 L 172.65 74.831 L 172.65 79.35 L 143.699 79.35 C 143.397 79.288 143.085 79.288 142.782 79.35 L 138.335 79.35 L 143.984 74.901 L 144.054 74.831 Z  M 145.749 83.869 L 172.438 83.869 C 171.387 90.356 165.933 95.166 159.093 95.166 C 152.254 95.166 146.799 90.356 145.749 83.869 Z  M 78.316 86.128 L 99.004 86.128 C 99.472 86.128 99.684 86.252 99.711 86.271 L 99.711 86.338 L 106.42 120.021 C 106.411 120.03 106.515 120.021 106.207 120.021 L 84.459 120.021 L 77.681 86.905 L 77.751 86.905 C 77.706 86.569 77.733 86.454 77.751 86.341 C 77.893 86.304 78.042 86.261 78.176 86.198 L 78.316 86.128 Z  M 145.114 108.723 L 164.952 108.723 L 131.769 150.029 L 131.769 136.755 C 131.769 135.873 131.249 135.069 130.445 134.708 C 129.639 134.343 128.695 134.48 128.027 135.06 L 115.812 145.653 C 114.592 146.692 113.395 147.135 111.858 147.135 C 110.525 147.135 108.821 146.457 107.692 145.37 L 107.622 145.298 L 88.626 124.54 L 103.878 124.54 L 110.724 131.318 C 111.577 132.165 112.943 132.195 113.833 131.388 L 135.016 112.465 C 135.025 112.456 135.077 112.474 135.086 112.465 C 137.239 110.7 142.359 108.723 145.114 108.723 Z  M 170.743 108.723 L 171.098 108.723 C 174.09 108.723 176.729 109.853 178.581 111.69 L 136.216 165.211 L 131.767 165.211 L 131.767 157.233 L 170.743 108.723 Z  M 180.983 115.854 C 181.3 116.914 181.512 118.035 181.476 119.244 L 181.476 165.211 L 142.007 165.211 L 180.983 115.854 Z " fill="rgb(255,255,255)"/></g></svg>